<svg width="24" height="24" viewBox="0 0 24 24" fill="none" xmlns="http://www.w3.org/2000/svg">
<path d="M17.2593 6.60782C16.3328 5.97567 15.6643 4.96387 15.4557 3.78513C15.4107 3.53052 15.3856 3.26823 15.3856 3H12.4287L12.4237 15.4018C12.3743 16.7908 11.282 17.9052 9.94299 17.9052C9.52681 17.9052 9.135 17.7966 8.78991 17.6063C7.99861 17.1707 7.45695 16.3028 7.45695 15.3043C7.45695 13.8699 8.57231 12.7027 9.94265 12.7027C10.1986 12.7027 10.4439 12.7471 10.6759 12.8228V9.66382C10.4356 9.62924 10.1916 9.60829 9.94265 9.60829C6.94165 9.60829 4.5 12.1631 4.5 15.3043C4.5 17.2312 5.41979 18.9366 6.82384 19.9676C7.70759 20.6176 8.78323 21 9.94299 21C12.9443 21 15.3856 18.4448 15.3856 15.3043V9.01525C16.5454 9.8863 17.9665 10.3997 19.5 10.3997V7.30494C18.674 7.30494 17.9047 7.04824 17.2593 6.60782Z" fill="white"/>
</svg>
