<svg width="24" height="24" viewBox="0 0 24 24" fill="none" xmlns="http://www.w3.org/2000/svg">
<path d="M21.4465 6.2554C20.7757 6.55359 20.0538 6.75472 19.2963 6.84473C20.0697 6.38171 20.6627 5.64829 20.9424 4.77337C20.219 5.20268 19.4181 5.5142 18.5651 5.68237C17.8824 4.95487 16.9093 4.5 15.8325 4.5C13.7652 4.5 12.0891 6.17613 12.0891 8.2438C12.0891 8.5368 12.1221 8.82239 12.1861 9.09687C9.07464 8.94055 6.31578 7.45036 4.46926 5.18527C4.147 5.73793 3.96253 6.38097 3.96253 7.06772C3.96253 8.3664 4.62335 9.51247 5.62792 10.1837C5.01451 10.164 4.43703 9.9955 3.93215 9.71509C3.93178 9.73065 3.93178 9.74658 3.93178 9.7625C3.93178 11.5761 5.22231 13.0888 6.93512 13.4333C6.621 13.5185 6.29022 13.5645 5.9487 13.5645C5.70719 13.5645 5.47271 13.5411 5.24417 13.497C5.72089 14.9843 7.10329 16.067 8.74127 16.097C7.46 17.1012 5.84609 17.6998 4.0918 17.6998C3.78991 17.6998 3.49173 17.682 3.19873 17.6472C4.85597 18.7099 6.82362 19.3292 8.93759 19.3292C15.824 19.3292 19.5893 13.6248 19.5893 8.67755C19.5893 8.51531 19.5859 8.35344 19.5789 8.19268C20.3101 7.66595 20.945 7.00624 21.4465 6.2554Z" fill="white"/>
</svg>
