<svg width="24" height="24" viewBox="0 0 24 24" fill="none" xmlns="http://www.w3.org/2000/svg">
<path fill-rule="evenodd" clip-rule="evenodd" d="M20.4084 4.95436C21.3172 5.19902 22.0336 5.91551 22.2783 6.82423C22.7327 8.4844 22.7152 11.9445 22.7152 11.9445C22.7152 11.9445 22.7152 15.3872 22.2783 17.0474C22.0336 17.9561 21.3172 18.6726 20.4084 18.9172C18.7483 19.3541 12.1076 19.3541 12.1076 19.3541C12.1076 19.3541 5.4844 19.3541 3.80676 18.8998C2.89804 18.6551 2.18154 17.9386 1.93689 17.0299C1.5 15.3872 1.5 11.9271 1.5 11.9271C1.5 11.9271 1.5 8.4844 1.93689 6.82423C2.18154 5.91551 2.91551 5.18154 3.80676 4.93689C5.46693 4.5 12.1076 4.5 12.1076 4.5C12.1076 4.5 18.7483 4.5 20.4084 4.95436ZM15.5152 11.927L9.99299 15.1075V8.74644L15.5152 11.927Z" fill="white"/>
</svg>
